<svg version="1.1" id="Layer_1" xmlns="http://www.w3.org/2000/svg" xmlns:xlink="http://www.w3.org/1999/xlink" x="0px" y="0px"
	 width="100%" viewBox="0 0 912 560" enable-background="new 0 0 912 560" xml:space="preserve">
<path fill="#000000" opacity="1.000000" stroke="none" 
	d="
M122.661880,335.999847 
	C122.659653,285.172180 122.654991,234.844498 122.658958,184.516800 
	C122.659500,177.664185 122.679459,177.650925 129.481445,177.650742 
	C193.807571,177.649033 258.133698,177.650101 322.459808,177.657043 
	C329.318726,177.657791 329.343903,177.677582 329.344696,184.518448 
	C329.351044,240.178879 329.350433,295.839325 329.342255,351.499756 
	C329.341248,358.327728 329.314789,358.347809 322.503723,358.349060 
	C258.177612,358.360870 193.851486,358.367462 129.525360,358.368683 
	C122.678703,358.368805 122.673241,358.348450 122.661591,351.497650 
	C122.653091,346.498383 122.661369,341.499084 122.661880,335.999847 
M131.349579,270.499908 
	C131.349213,294.655609 131.346008,318.811310 131.350311,342.967010 
	C131.351501,349.631927 131.361755,349.649506 137.823532,349.650055 
	C196.463531,349.654999 255.103531,349.654846 313.743530,349.651642 
	C320.627777,349.651245 320.650970,349.638519 320.651947,342.808838 
	C320.658966,292.831573 320.591461,242.854080 320.757141,192.877350 
	C320.773407,187.960632 319.603729,186.240524 314.401489,186.255783 
	C255.428802,186.428772 196.455307,186.421677 137.482468,186.284561 
	C132.662186,186.273361 131.214798,187.733902 131.253036,192.535645 
	C131.457306,218.189026 131.349716,243.844879 131.349579,270.499908 
z"/>
<path fill="#000000" opacity="1.000000" stroke="none" 
	d="
M379.582336,251.082443 
	C392.017822,247.118286 403.936188,253.461060 404.035065,263.975159 
	C399.961365,264.442322 396.192078,265.189636 392.727570,261.353271 
	C389.538818,257.822235 383.776581,258.498077 380.683685,261.923126 
	C377.410248,265.548096 377.652649,270.864807 381.233826,273.989685 
	C384.600128,276.927063 390.193817,276.565979 393.443970,273.201477 
	C397.404938,269.101135 397.624115,269.041809 404.331787,270.253235 
	C404.772675,276.814789 399.204742,283.364166 391.694916,285.117615 
	C382.264618,287.319489 373.082916,282.596497 369.786865,273.848328 
	C366.435028,264.952240 369.889435,256.674622 379.582336,251.082443 
z"/>
<path fill="#000000" opacity="1.000000" stroke="none" 
	d="
M545.808105,285.047119 
	C538.727234,285.123352 538.714661,285.123383 538.702271,278.486267 
	C538.687683,270.679352 538.856812,262.867676 538.628418,255.067413 
	C538.518066,251.296356 540.117554,250.034332 543.586548,250.069611 
	C549.399353,250.128723 555.215393,250.141129 561.026367,250.010284 
	C564.731140,249.926865 565.941711,251.674271 565.921021,255.190109 
	C565.898804,258.955200 563.821716,259.506592 560.763123,259.394226 
	C557.447205,259.272461 554.121582,259.373260 550.801331,259.436829 
	C549.502808,259.461700 548.505005,260.062805 548.505554,261.509583 
	C548.506165,262.956512 549.487000,263.526215 550.802368,263.566895 
	C552.628052,263.623352 554.458618,263.706116 556.281250,263.632355 
	C558.942505,263.524597 560.920776,264.052094 560.760864,267.347290 
	C560.619141,270.269073 560.075134,272.718872 556.273438,272.297272 
	C555.617371,272.224518 554.932434,272.379974 554.283508,272.281219 
	C549.316284,271.525085 547.894714,273.858917 548.240295,278.514221 
	C548.402405,280.698425 549.582336,283.670532 545.808105,285.047119 
z"/>
<path fill="#000000" opacity="1.000000" stroke="none" 
	d="
M435.179199,282.637573 
	C433.796692,286.004639 431.240387,285.327820 429.077362,284.871857 
	C426.465820,284.321350 426.884003,281.904633 426.834137,279.956116 
	C426.761871,277.131500 426.885834,274.298004 426.718048,271.480713 
	C426.528564,268.299774 424.455536,266.566681 421.490692,266.556793 
	C418.489166,266.546722 416.497833,268.383240 416.300842,271.515991 
	C416.113373,274.497986 416.133789,277.499359 416.199738,280.489197 
	C416.265411,283.463531 415.332092,285.189697 411.960571,285.201294 
	C408.636383,285.212738 407.643188,283.628326 407.670929,280.581268 
	C407.749725,271.936584 407.738007,263.290192 407.655182,254.645462 
	C407.629028,251.913528 408.325531,250.170090 411.451477,250.064255 
	C414.711914,249.953888 415.913116,251.564880 415.918457,254.601334 
	C415.920746,255.904556 416.213593,257.207275 416.357361,258.372101 
	C416.830627,258.664154 417.111572,258.991272 417.378876,258.980469 
	C430.220093,258.460266 435.339722,263.362610 435.315491,276.199829 
	C435.311737,278.194489 435.272278,280.189117 435.179199,282.637573 
z"/>
<path fill="#000000" opacity="1.000000" stroke="none" 
	d="
M644.449219,275.039307 
	C645.890625,274.743530 647.033447,274.606445 648.540894,274.425598 
	C645.586060,271.647919 642.432312,269.038513 644.151489,264.657013 
	C645.933716,260.114807 650.130127,259.179108 654.330627,258.777039 
	C658.210388,258.405701 661.946838,259.202454 665.103210,261.717224 
	C666.879517,263.132416 668.129211,265.050751 667.796814,267.305664 
	C667.403931,269.970612 664.635681,268.825378 662.800110,269.681519 
	C666.115662,272.027496 669.365051,274.422363 667.996338,278.984314 
	C666.690979,283.335114 662.766174,284.225159 658.961304,284.903015 
	C654.559265,285.687286 650.303894,284.958740 646.579285,282.456177 
	C644.068481,280.769135 642.769470,278.348511 644.449219,275.039307 
z"/>
<path fill="#000000" opacity="1.000000" stroke="none" 
	d="
M460.092865,258.832153 
	C463.018402,258.823059 464.155151,260.096191 464.152008,262.551025 
	C464.144043,268.717041 464.126587,274.883636 464.196808,281.049011 
	C464.235474,284.439667 462.315826,285.505768 459.387024,285.129486 
	C456.407043,284.746613 453.476959,284.989441 450.503540,285.075562 
	C442.983215,285.293518 436.426270,278.670837 436.725250,271.555542 
	C437.031647,264.263123 443.799133,258.143738 451.265015,258.841766 
	C454.105438,259.107361 456.861298,259.112274 460.092865,258.832153 
M447.116974,267.737579 
	C444.634766,270.206207 444.236084,272.959595 446.588043,275.602448 
	C448.392670,277.630341 450.777191,278.241547 453.216187,276.483856 
	C455.668976,274.716248 456.586792,272.119720 455.180511,269.552734 
	C453.619141,266.702515 450.994904,265.389404 447.116974,267.737579 
z"/>
<path fill="#000000" opacity="1.000000" stroke="none" 
	d="
M470.331696,272.886047 
	C464.926849,267.030579 466.210785,262.052338 473.434875,259.620697 
	C478.699646,257.848541 483.620972,258.596527 488.146301,261.713989 
	C490.006866,262.995728 491.301056,264.934631 490.948456,267.227966 
	C490.504608,270.114868 487.790192,268.862488 485.956940,269.423706 
	C486.139679,271.044861 487.831573,270.950439 488.687592,271.770508 
	C492.797485,275.707550 492.075317,281.251251 486.864532,283.529846 
	C481.754120,285.764587 476.542694,285.766388 471.398590,283.415466 
	C468.802002,282.228760 466.959045,280.427612 466.761810,277.453461 
	C466.527374,273.918488 469.518951,275.110199 471.273926,274.341095 
	C472.196808,273.936646 470.998199,273.423828 470.331696,272.886047 
z"/>
<path fill="#000000" opacity="1.000000" stroke="none" 
	d="
M616.874390,280.004333 
	C612.989685,273.362518 613.008911,268.613525 616.706665,264.026672 
	C620.177612,259.721130 625.984863,258.007935 631.511292,259.659149 
	C636.613586,261.183624 640.025269,265.616791 640.621094,270.933655 
	C640.967285,274.023682 639.904846,275.220093 636.850952,275.135681 
	C632.775635,275.022949 628.694824,275.107788 624.619385,275.723785 
	C629.293030,278.676880 634.347290,273.424683 638.970276,276.617310 
	C636.545654,285.853149 625.293518,287.751984 616.874390,280.004333 
z"/>
<path fill="#000000" opacity="1.000000" stroke="none" 
	d="
M704.360840,275.311249 
	C702.423157,275.606750 702.250305,276.200470 703.859192,276.718719 
	C706.228577,277.481873 708.406250,276.098053 710.685303,275.878510 
	C712.770386,275.677704 714.976868,275.230255 717.471619,276.693115 
	C716.092346,281.303040 712.712280,283.466705 708.341797,284.550110 
	C701.038269,286.360535 693.379150,281.209991 692.082886,273.634094 
	C690.881287,266.611450 696.758911,259.597931 704.423218,258.908997 
	C711.930969,258.234070 718.691772,264.243347 718.843933,271.600494 
	C718.899170,274.271454 717.562805,275.097321 715.174377,275.108643 
	C711.681763,275.125183 708.189575,275.234039 704.360840,275.311249 
z"/>
<path fill="#000000" opacity="1.000000" stroke="none" 
	d="
M500.271881,261.022064 
	C508.245789,256.052338 519.343079,260.542572 520.807922,270.514282 
	C521.261719,273.603699 520.223877,274.987000 517.251831,275.024994 
	C513.106506,275.078033 508.959961,275.038330 504.788269,275.747131 
	C509.327728,278.701355 514.339783,273.589661 518.861328,276.466095 
	C518.293030,280.909058 514.656067,284.018463 508.942719,284.897430 
	C503.752747,285.695831 497.364380,282.064148 495.088318,277.021454 
	C492.603333,271.515900 494.252075,266.152008 500.271881,261.022064 
z"/>
<path fill="#000000" opacity="1.000000" stroke="none" 
	d="
M758.415039,259.176086 
	C766.216980,261.731628 769.760864,266.354340 769.307800,272.977173 
	C768.887268,279.125183 763.935242,284.089630 757.317627,284.997223 
	C751.703918,285.767090 745.893616,282.150360 743.562134,276.434814 
	C739.850769,267.336487 747.147156,258.574982 758.415039,259.176086 
M754.971252,277.235840 
	C758.380554,277.646088 760.257080,275.734711 761.313843,272.845642 
	C762.034973,270.874084 761.088440,269.153259 759.617615,267.987732 
	C756.787659,265.745300 753.935303,266.095520 751.809814,268.971252 
	C749.125061,272.603821 750.939026,275.113159 754.971252,277.235840 
z"/>
<path fill="#000000" opacity="1.000000" stroke="none" 
	d="
M568.765015,268.946838 
	C571.646423,262.064148 576.536316,258.563629 582.352844,258.886169 
	C587.780151,259.187103 592.431885,262.539246 594.196533,267.356964 
	C596.107361,272.573792 595.141785,277.296783 591.162598,281.020508 
	C586.992432,284.922913 581.958740,286.212158 576.482361,283.845245 
	C571.476624,281.681671 568.684448,277.847351 568.509705,272.297241 
	C568.478638,271.309540 568.633545,270.315948 568.765015,268.946838 
M577.800842,275.598145 
	C579.372375,276.945068 581.040283,277.919983 583.214966,277.073883 
	C586.375977,275.844055 587.611633,273.437012 586.621216,270.332764 
	C585.638062,267.251373 583.161987,265.636414 580.020447,266.937042 
	C576.329773,268.465027 575.316406,271.373718 577.800842,275.598145 
z"/>
<path fill="#000000" opacity="1.000000" stroke="none" 
	d="
M676.770874,272.206543 
	C676.894653,268.786835 677.001526,265.940430 672.738037,265.903351 
	C670.431274,265.883301 669.709534,264.308472 669.804626,262.153961 
	C669.891052,260.194824 670.694824,258.848938 672.734436,258.897614 
	C676.151001,258.979156 677.009094,257.120087 676.811096,254.161194 
	C676.625916,251.394882 677.638306,249.770752 680.760132,249.757050 
	C683.802124,249.743698 685.005249,251.288086 684.960449,254.039337 
	C684.913452,256.922607 685.590515,258.924530 689.070862,258.769806 
	C691.283997,258.671356 691.769531,260.303253 691.832397,262.123047 
	C691.894653,263.926331 691.548584,265.677216 689.380615,265.755859 
	C685.076599,265.912018 684.794800,268.588684 685.028259,271.912231 
	C685.225891,274.725342 685.129395,277.558075 685.210999,280.380707 
	C685.293030,283.217743 684.664246,285.195740 681.153992,285.231995 
	C677.431152,285.270416 676.677917,283.238739 676.777832,280.150177 
	C676.858398,277.660095 676.779724,275.164886 676.770874,272.206543 
z"/>
<path fill="#000000" opacity="1.000000" stroke="none" 
	d="
M731.840088,263.014526 
	C731.834900,259.700134 731.901428,256.880890 731.814636,254.066360 
	C731.724426,251.142303 733.025757,249.856613 735.958923,249.822693 
	C738.904053,249.788635 740.199402,251.076248 740.185913,253.986450 
	C740.144409,262.934387 740.121582,271.882935 740.180359,280.830627 
	C740.200623,283.906403 739.064758,285.366608 735.786011,285.308136 
	C732.644287,285.252045 731.812073,283.656189 731.836182,280.911957 
	C731.886963,275.112335 731.847046,269.311890 731.840088,263.014526 
z"/>
<path fill="#000000" opacity="1.000000" stroke="none" 
	d="
M611.848511,265.928223 
	C607.384338,266.526184 605.900452,269.010651 605.927307,272.899170 
	C605.947754,275.870361 605.702942,278.844421 605.543579,281.815460 
	C605.391479,284.649750 603.655518,285.304260 601.132385,285.148163 
	C598.564087,284.989258 597.712463,283.566284 597.716675,281.244690 
	C597.727966,274.951782 597.717651,268.658813 597.717163,262.365875 
	C597.717102,262.200409 597.733276,262.035004 597.737000,261.869476 
	C597.776855,260.110229 598.721130,258.710297 600.402771,258.982269 
	C604.712524,259.679260 609.473511,256.997864 613.235413,260.013336 
	C614.720032,261.203369 614.022522,264.079895 611.848511,265.928223 
z"/>
<path fill="#000000" opacity="1.000000" stroke="none" 
	d="
M729.333740,272.985107 
	C729.328857,276.140472 729.242371,278.802155 729.342041,281.456848 
	C729.444702,284.189117 728.329285,285.352722 725.531677,285.310059 
	C722.779175,285.268097 721.652405,284.093597 721.666382,281.392334 
	C721.714661,272.087555 721.705261,262.782288 721.669067,253.477402 
	C721.659363,250.986725 722.755310,249.850418 725.264771,249.831421 
	C727.855103,249.811813 729.353516,250.675018 729.326904,253.546127 
	C729.268433,259.859650 729.324463,266.174255 729.333740,272.985107 
z"/>
<path fill="#000000" opacity="1.000000" stroke="none" 
	d="
M267.000061,205.656342 
	C274.165314,205.659775 280.831573,205.591278 287.495483,205.687759 
	C294.149292,205.784103 297.312592,208.894791 297.321533,215.530411 
	C297.368439,250.356323 297.363190,285.182343 297.324707,320.008270 
	C297.318298,325.807159 294.877106,328.597870 289.224335,329.483490 
	C287.097382,329.816711 284.917603,329.941162 282.761780,329.942780 
	C245.769608,329.970642 208.777420,329.972229 171.785263,329.946625 
	C169.462173,329.945038 167.112503,329.845734 164.821686,329.491333 
	C159.452286,328.660522 156.725021,325.798767 156.714432,320.475525 
	C156.644073,285.149841 156.635849,249.823868 156.726669,214.498291 
	C156.741898,208.574524 160.311935,205.675827 167.021454,205.669922 
	C199.347931,205.641449 231.674469,205.657227 264.000977,205.657257 
	C264.834015,205.657257 265.667023,205.656906 267.000061,205.656342 
M287.805725,258.500000 
	C287.810150,250.507294 287.633301,242.508667 287.893158,234.524277 
	C288.029266,230.341537 286.486145,229.097687 282.410339,229.111481 
	C245.610855,229.236023 208.810501,229.265808 172.011261,229.115616 
	C167.355774,229.096619 166.100037,230.645920 166.131851,235.159592 
	C166.316086,261.301208 166.349609,287.445953 166.112427,313.586700 
	C166.066269,318.671844 167.619476,320.129242 172.626740,320.104492 
	C208.926224,319.924988 245.227570,319.909241 281.526764,320.115906 
	C286.763580,320.145721 287.949341,318.317383 287.884003,313.449707 
	C287.642670,295.469360 287.798096,277.483673 287.805725,258.500000 
M270.438660,221.172104 
	C272.387177,219.473114 273.330719,217.505325 271.960358,215.009155 
	C271.005920,213.270569 269.549744,212.314590 267.496704,212.352600 
	C265.195312,212.395218 263.769287,213.674149 262.942688,215.655731 
	C261.363525,219.441345 264.388702,222.018875 270.438660,221.172104 
M278.332703,218.242859 
	C279.282196,221.830353 281.849365,222.479874 284.924622,221.543381 
	C287.395874,220.790848 288.036591,218.676559 287.626038,216.307602 
	C287.203735,213.870972 285.670898,212.387146 283.170929,212.431778 
	C279.989868,212.488541 278.299011,214.246536 278.332703,218.242859 
M255.747849,213.914749 
	C253.364029,211.800125 250.957123,211.736389 248.682190,214.007782 
	C247.093491,215.593979 246.848694,217.606476 247.869965,219.529083 
	C249.039627,221.730988 251.196930,222.404572 253.441956,221.704147 
	C257.200623,220.531433 257.464996,217.748779 255.747849,213.914749 
z"/>
<path fill="#000000" opacity="1.000000" stroke="none" 
	d="
M186.204605,267.513672 
	C196.027145,263.136139 205.505966,258.975647 215.122849,254.754547 
	C217.189896,262.951630 216.716476,263.909363 210.415848,266.323395 
	C206.091568,267.980194 201.790924,269.698639 196.776215,271.665436 
	C201.290939,274.736755 205.899643,275.851257 210.174484,277.641602 
	C216.567764,280.319244 216.988464,281.008179 215.579590,288.226074 
	C213.478516,289.337402 211.766769,287.831970 210.053589,287.125458 
	C203.148499,284.277985 196.304459,281.280762 189.461609,278.284668 
	C184.072784,275.925201 183.344147,273.704651 186.204605,267.513672 
z"/>
<path fill="#000000" opacity="1.000000" stroke="none" 
	d="
M238.037735,262.435303 
	C237.900558,260.069763 237.425644,258.074402 238.245239,256.223572 
	C239.400970,255.167130 240.498077,255.720047 241.551712,256.169250 
	C249.656616,259.624756 257.725830,263.166016 265.868683,266.529144 
	C268.368958,267.561798 269.424652,269.052521 269.403870,271.791901 
	C269.382874,274.558899 268.794800,276.436127 265.940918,277.619659 
	C257.804962,280.993713 249.789459,284.657562 241.705826,288.159515 
	C240.845627,288.532196 239.848511,288.588837 238.970703,288.779938 
	C236.604340,282.297668 237.309006,280.479218 242.947403,278.160736 
	C247.546158,276.269745 252.165634,274.429138 257.970886,272.083344 
	C253.192657,270.184448 249.400604,268.805420 245.721268,267.172363 
	C243.061951,265.992096 239.786270,265.800232 238.037735,262.435303 
z"/>
<path fill="#000000" opacity="1.000000" stroke="none" 
	d="
M232.938232,262.743958 
	C230.612656,272.167084 228.453568,281.205750 226.215393,290.224792 
	C225.606750,292.677460 224.805847,295.606781 221.547470,294.945312 
	C217.903549,294.205627 218.545395,291.143188 219.195251,288.465942 
	C222.014893,276.849396 224.845749,265.235565 227.701965,253.627960 
	C228.356796,250.966690 229.139267,248.030594 232.785400,248.928619 
	C236.294922,249.793030 235.304123,252.637207 234.765152,255.073303 
	C234.227081,257.505188 233.640335,259.926270 232.938232,262.743958 
z"/>
</svg>